# xmcd CD database file
#
# Track frame offsets:
#	150
#	37744
#	80398
#	108764
#	147232
#	211548
#	240635
#
# Disc length: 3644 seconds
#
# Revision: 0
# Processed by: cddbd v1.5.2PL0 Copyright (c) Steve Scherf et al.
# Submitted via: CDex 1.70beta2
#
DISCID=490e3a07
DTITLE=The Vandermark 5 - Vs. Santo
DYEAR=1999
DGENRE=Jazz
TTITLE0=STHLM
TTITLE1=Cover To Cover
TTITLE2=Full Deck
TTITLE3=Point Blank
TTITLE4=444
TTITLE5=Lost And Found
TTITLE6=Vent
EXTD=YEAR: 1999
EXTT0=
EXTT1=
EXTT2=
EXTT3=
EXTT4=
EXTT5=
EXTT6=
PLAYORDER=
